<svg id="Layer_1" enable-background="new 0 0 512 512" height="512" viewBox="0 0 512 512" width="512" xmlns="http://www.w3.org/2000/svg"><g><g id="XMLID_424_"><g id="XMLID_425_"><g id="XMLID_426_"><g id="XMLID_427_"><g id="XMLID_428_"><g id="XMLID_429_"><g id="XMLID_430_"><g id="XMLID_431_"><g id="XMLID_432_"><g id="XMLID_433_"><g id="XMLID_434_"><g id="XMLID_435_"><g id="XMLID_436_"><g id="XMLID_437_"><path d="m512 256c0 129.85-96.69 237.13-222 253.76-11.12 1.48-22.47 2.24-34 2.24s-22.88-.76-34-2.24c-125.31-16.63-222-123.91-222-253.76 0-141.38 114.62-256 256-256s256 114.62 256 256z" fill="#bbedff"/></g></g></g></g></g></g></g></g></g></g></g></g></g></g><path d="m511.841 264.609-27.187-27.187-17.915-10.66-124.05-123.799-289.809 212.916 196.017 196.017c2.36.064 4.727.104 7.103.104 11.53 0 22.88-.76 34-2.24 122.529-16.261 217.676-119.196 221.841-245.151z" fill="#77d2f2"/><g><g><path d="m370.61 239.17-49.63 18.1c-41.77 15.22-87.15 15.22-128.92 0l-49.63-18.1 3.7-25.28 9.67-12.89-5.27-17.11 5.27-36 9.7-12.89c.62-4.2-5.38-13.32-3.91-17.11 7.58-19.59 25.77-33 46.55-33h96.76c20.78 0 38.97 13.41 46.54 33 1.47 3.79-5.05 10.8-4.44 15l10.23 15 5.28 36-5.28 15 9.67 15z" fill="#f7ca9a"/><g><path d="m370.61 239.17-49.63 18.1c-7.45 2.71-15.01 4.94-22.65 6.69-11.43 2.61-23.03 4.14-34.65 4.58-2.56.11-5.12.15-7.68.14v-183.79h48.9c20.78 0 38.97 13.41 46.54 33 1.47 3.79-5.05 10.8-4.44 15l10.23 15 5.28 36-5.28 15 9.67 15 2.16 14.69z" fill="#eab07d"/></g><path d="m204.186 254.202c-20.433-5.087-40.313-12.152-59.406-21.034-19.238-8.949-46.123-19.965-67.595-23.068-56.313-8.136-83.62 36.197-42.156 85.72 0 0 49.757 34.789 111.954 38.935s175.282-88.771 175.282-88.771l.174-.374c-37.208 15.386-72.495 14.281-117.781 8.71z" fill="#89583f"/><path d="m322.439 245.61s-9.529 7.59-24.109 18.35c-11.41 8.42-26.13 18.78-42.33 28.96v-34.83c20.29-.06 39.19-2.67 58.45-9.54 2.54-.9 5.429-1.88 7.989-2.94z" fill="#7a4934"/><path d="m35.03 295.82s108.603 27.097 236.1-23.81 156.169-65.313 195.132-48.518c40.083 17.277 58.204 93.588-56.418 130.763-92.164 29.891-297.414 46.499-374.814-58.435z" fill="#603f2c"/><path d="m409.84 354.26c-37.8 12.26-94.62 22.28-153.84 22.6v-99.11s5.11-1.86 7.68-2.84c2.47-.94 8.299-3.545 10.789-4.535 15.91-6.35 29.945-15.764 38.836-20.063 2.508-1.213 8.696-4.671 11.196-5.621 18.13-6.95 31.168-11.671 44.559-16.111 49.63-16.44 71.11-16.33 97.2-5.09 40.08 17.28 58.21 93.59-56.42 130.77z" fill="#4c2c1b"/></g><g><path d="m357.23 147.89h-201.43l2.64-18c.62-4.2 1.68-8.21 3.15-12h189.85c1.47 3.79 2.54 7.8 3.15 12z" fill="#89583f"/></g><g><path d="m357.23 147.89h-101.23v-30h95.44c1.47 3.79 2.54 7.8 3.15 12z" fill="#603f2c"/></g><g><path d="m366.9 213.89h-220.77l4.4-30h211.98z" fill="#89583f"/></g><g><path d="m366.9 213.89h-110.9v-30h106.51z" fill="#603f2c"/></g></g></g></svg>